<svg width="24" height="24" viewBox="0 0 24 24" fill="none" xmlns="http://www.w3.org/2000/svg">
<path d="M11.918 0.549805C18.1952 0.550066 23.2839 5.63972 23.2842 11.917C23.2839 18.1943 18.1952 23.2829 11.918 23.2832C5.64069 23.2829 0.551043 18.1943 0.550781 11.917C0.551042 5.63972 5.64069 0.550066 11.918 0.549805ZM11.918 2.5498C6.74526 2.55007 2.55104 6.74429 2.55078 11.917C2.55104 17.0897 6.74526 21.2829 11.918 21.2832C17.0907 21.2829 21.2839 17.0897 21.2842 11.917C21.2839 6.74429 17.0907 2.55007 11.918 2.5498ZM18.0244 9.38184L11.1133 16.293C10.9258 16.4805 10.6714 16.5859 10.4062 16.5859C10.141 16.5859 9.88675 16.4805 9.69922 16.293L6.03027 12.624L7.44434 11.21L10.4062 14.1719L16.6104 7.96777L18.0244 9.38184Z" fill="black"/>
</svg>
